<svg xmlns="http://www.w3.org/2000/svg" viewBox="0 0 787.79 452" width="98" height="62"><defs><style>.cls-1{fill:#475c69;}.cls-2{fill:#f57f31;}.cls-3{fill:#737c84;}.cls-4{fill:#90979d;}.cls-5{fill:#b4b9bd;}.cls-6{fill:#dbdddf;}.cls-7{fill:#f19e70;}.cls-8{fill:#f5ac84;}.cls-9{fill:#f9bf9f;}.cls-10{fill:#fee7db;}.cls-11{fill:#515c65;}</style></defs><g id="Layer_2" data-name="Layer 2"><g id="Laag_1" data-name="Laag 1"><path class="cls-1" d="M270.68,223c-12.41,60.65-68,89.19-68,89.19,120.84-109.82,12.42-207.73,12.42-207.73,43.62,20.69,57.71,76.5,57.71,76.5H275s14.06-55.81,57.69-76.5c0,0-108.42,97.91,12.41,207.73,0,0-55.63-28.54-68-89.19Z"></path><path class="cls-1" d="M290.4,117a15.48,15.48,0,1,1-15.47-15.48A15.47,15.47,0,0,1,290.4,117Z"></path><path class="cls-2" d="M542.27,223c-12.39,60.65-68,89.19-68,89.19C595,202.37,486.65,104.46,486.65,104.46c43.63,20.69,57.69,76.5,57.69,76.5h2.26s14.07-55.81,57.69-76.5c0,0-108.41,97.91,12.43,207.73,0,0-55.66-28.54-68.05-89.19Z"></path><path class="cls-2" d="M562,117a15.48,15.48,0,1,1-15.47-15.48A15.48,15.48,0,0,1,562,117Z"></path><path class="cls-1" d="M241.28,98.86a13.09,13.09,0,1,1-13.1-13.11,13.1,13.1,0,0,1,13.1,13.11Z"></path><path class="cls-3" d="M293.59,45.51a12.06,12.06,0,1,1-12-12.07,12.05,12.05,0,0,1,12,12.07Z"></path><path class="cls-4" d="M372.34,14.12a11,11,0,1,1-11-11,11,11,0,0,1,11,11Z"></path><path class="cls-4" d="M451.54,9.93A10,10,0,1,1,441,0h1.11a10,10,0,0,1,9.39,9.93Z"></path><path class="cls-4" d="M522.69,28.76a8.92,8.92,0,1,1-8.93-8.91,8.9,8.9,0,0,1,8.93,8.91Z"></path><path class="cls-5" d="M572.89,65.38a6.82,6.82,0,1,1-6.82-6.83,6.82,6.82,0,0,1,6.82,6.83Z"></path><path class="cls-6" d="M606.38,105.13a6.83,6.83,0,1,1-6.83-6.82,6.82,6.82,0,0,1,6.83,6.82Z"></path><path class="cls-2" d="M513,94.13A15.13,15.13,0,1,1,497.89,79,15.11,15.11,0,0,1,513,94.13Z"></path><path class="cls-7" d="M470.12,72.7a12.05,12.05,0,1,1-12.06-12.05A12.07,12.07,0,0,1,470.12,72.7Z"></path><path class="cls-8" d="M414.25,67.59a10,10,0,1,1-10-10,10,10,0,0,1,10,10Z"></path><path class="cls-9" d="M370.65,75.62a8,8,0,1,1-8-8,8,8,0,0,1,8,8Z"></path><path class="cls-10" d="M336.47,98.21a7,7,0,1,1-7-7,7,7,0,0,1,7,7Z"></path><path class="cls-11" d="M555.46,157.62c.62-1.31,1.27-2.64,2-4-7.47-.47-15.62-.76-24.34-.81.75,1.41,1.45,2.82,2.08,4.18,7.2.06,14,.27,20.3.64ZM522.1,157c-.55-1.4-1.15-2.78-1.76-4.14-34.08.56-75.25,4.09-118.83,10.63C362,169.43,322.41,177.7,289.12,187c-.19,1.41-.37,2.81-.52,4.24,30.75-8.72,69.24-17.05,113.52-23.68,43.77-6.56,85.63-10.08,120-10.58Zm88.07,14.93c-.42-2.82-2.14-5.36-5.13-7.55-6.21-4.6-18.47-7.83-35.22-9.69-.56,1.29-1.09,2.62-1.64,4,16.53,1.71,28.54,4.73,34.42,9.07,2.06,1.53,3.23,3.14,3.48,4.83,1.18,8-15.69,19-46.47,30.18-8.52,3.11-18.1,6.22-28.65,9.31-31.51,9.2-71.72,18.08-118.39,25.09-44.25,6.63-83.47,10-115.4,10.66-4.12.09-8.1.14-12,.14-8,0-15.49-.17-22.39-.5-4.12-.19-8.05-.46-11.75-.8-26.13-2.27-41.39-7.41-42.44-14.47-1.26-8.37,17.36-20,51.11-31.86,0-1.36-.08-2.72-.19-4.08-34.54,12-56.76,24.92-55,36.56,1.43,9.57,18.6,15.21,44.94,17.65q5.53.52,11.57.83c8.08.44,16.78.63,26,.58,3.86,0,7.79-.08,11.83-.16,34.55-.83,74.86-4.54,114.31-10.46,41.44-6.23,83.08-15,117.35-25,10.47-3,20.25-6.18,29.14-9.39,32-11.51,52.18-23.81,50.5-34.93Z"></path><path class="cls-1" d="M0,423.7l15.36-7.12a21.31,21.31,0,0,0,8,12.09q5.84,4.17,14.88,4.17,8.58,0,13.63-4.78c3.38-3.19,5.05-7.43,5.05-12.77q0-10.43-17.31-18.6c-1.6-.81-2.84-1.41-3.71-1.79q-19.57-9.54-26.09-17.26T3.32,358.75q0-14.46,9.82-23.45c6.56-6,15.12-9,25.76-9q13.1,0,21.91,5.07A26.48,26.48,0,0,1,73,345.9l-15,7.76a25.18,25.18,0,0,0-7.81-8.16,18.3,18.3,0,0,0-9.74-2.59c-5.18,0-9.29,1.36-12.35,4a13.75,13.75,0,0,0-4.55,10.84q0,10.66,20.06,19.88c1,.5,1.83.87,2.42,1.15q17.55,8.08,24.1,15.8t6.54,19.29q0,16.81-10.58,26.71t-28.63,9.93q-15.12,0-24.8-7T0,423.7Z"></path><path class="cls-1" d="M89.6,447.39V322.05h16.51v61.21a32.84,32.84,0,0,1,12.37-11.55q7.11-3.65,17.29-3.65a35.54,35.54,0,0,1,14.6,2.7,21.22,21.22,0,0,1,9.42,8.06,22.09,22.09,0,0,1,2.94,7.36c.57,2.79.87,7.7.87,14.71v46.5H145.89V408q0-15.12-3.68-20.09t-13.06-5a25.48,25.48,0,0,0-11,2.27,18.08,18.08,0,0,0-7.56,6.38,17.21,17.21,0,0,0-2.71,7.07,85.49,85.49,0,0,0-.77,13.79v34.94Z"></path><path class="cls-1" d="M252.49,447.39H234.92v-9.95a29.14,29.14,0,0,1-25.3,13.11q-16.27,0-25.6-11.12T174.69,409q0-18.35,9.53-29.63t24.91-11.28A31.11,31.11,0,0,1,225.19,372a22.81,22.81,0,0,1,9.73,11.28V370.72h17.57v76.67Zm-17.07-38.57q0-11.9-5.54-18.53c-3.7-4.41-8.85-6.63-15.49-6.63s-11.85,2.28-15.64,6.84-5.69,10.88-5.69,19,1.82,14.42,5.48,18.84,8.84,6.63,15.54,6.63a19,19,0,0,0,15.39-7.19q5.94-7.2,5.95-18.92Z"></path><path class="cls-1" d="M287.67,382.94q2.83-7.62,7.47-11.25a18.2,18.2,0,0,1,11.53-3.63A30.56,30.56,0,0,1,314,369a35.8,35.8,0,0,1,7.07,2.58l-6.3,14.88a16.61,16.61,0,0,0-4.9-2.38,21,21,0,0,0-5.87-.77c-5.82,0-10,2.33-12.53,7s-3.79,12.49-3.79,23.49v33.64H270.11V370.57h17.56v12.37Z"></path><path class="cls-1" d="M398.3,411.65H337c.44,7.16,2.57,12.77,6.38,16.77s8.93,6,15.29,6c5.65,0,10.38-1.18,14.15-3.56s7.07-6.2,9.87-11.48l14.8,8.24q-6.47,11.58-16,17.24t-22.39,5.66q-18.45,0-29.36-11.24t-10.91-30q0-18,11.28-29.65t29-11.59q18.5,0,28.87,10.59t10.35,29.68v3.32Zm-18.2-11.81q-1.05-8.25-6.31-12.58t-14.38-4.32q-8.69,0-13.91,4.21t-7.37,12.69Z"></path><path class="cls-2" d="M449,452,396.19,329h20l26.53,63.07c1.55,3.66,2.86,7.06,3.89,10.15a84.07,84.07,0,0,1,2.41,8.85q1.06-4.43,2.67-9.21c1.07-3.18,2.35-6.44,3.81-9.79L481.92,329h19.9L449,452Z"></path><path class="cls-2" d="M568.78,447.39H551.23v-9.95a29.2,29.2,0,0,1-25.32,13.11q-16.21,0-25.59-11.12T491,409q0-18.35,9.54-29.63c6.38-7.53,14.66-11.28,24.91-11.28,6.27,0,11.61,1.3,16.06,3.92a22.92,22.92,0,0,1,9.74,11.28V370.72h17.55v76.67Zm-17.06-38.57q0-11.9-5.53-18.53c-3.71-4.41-8.86-6.63-15.5-6.63s-11.86,2.28-15.65,6.84-5.7,10.88-5.7,19,1.84,14.42,5.49,18.84,8.84,6.63,15.53,6.63a19,19,0,0,0,15.39-7.19q6-7.2,6-18.92Z"></path><polygon class="cls-2" points="587.22 447.38 604.78 447.38 604.78 322.05 587.22 322.05 587.22 447.38 587.22 447.38"></polygon><path class="cls-2" d="M640.19,370.72v43.19q0,11.14,4.62,16t15,4.86q10.35,0,15-4.86t4.61-16V370.72h17.54v37.93q0,22-8.8,31.94c-5.9,6.63-15.26,10-28.15,10q-19.65,0-28.47-9.87t-8.81-32V370.72Z"></path><path class="cls-2" d="M787.79,411.65H726.51c.41,7.16,2.54,12.77,6.37,16.77s8.92,6,15.29,6q8.49,0,14.13-3.56t9.89-11.48l14.8,8.24q-6.48,11.58-16,17.24c-6.35,3.76-13.84,5.66-22.41,5.66q-18.43,0-29.34-11.24t-10.93-30q0-18,11.3-29.65c7.5-7.72,17.18-11.59,29-11.59q18.53,0,28.88,10.59t10.35,29.68v3.32ZM769.6,399.84q-1.05-8.25-6.3-12.58t-14.41-4.32c-5.75,0-10.41,1.4-13.91,4.21s-6,7-7.35,12.69Z"></path></g></g></svg>